
<svg width="60px" height="60px" viewBox="0 0 74 101" version="1.1" xmlns="http://www.w3.org/2000/svg" xmlns:xlink="http://www.w3.org/1999/xlink">
    <defs>
        <linearGradient x1="37.0021709%" y1="24.1285023%" x2="54.8788835%" y2="69.3292409%" id="linearGradient-1">
            <stop stop-color="#FFFFFF" stop-opacity="0.5" offset="0%"></stop>
            <stop stop-color="#86B1FF" offset="100%"></stop>
        </linearGradient>
        <path d="M36.470845,0 C23.725,0 -0.00329150167,49.9999835 -8.52651283e-14,68.1818182 C0.00329149869,86.3636364 19.61875,100 36.5,100 C53.38125,100 73,86.3636364 73,68.1818182 C73,53.4770555 49.21669,0 36.470845,0 Z" id="path-2"></path>
        <path d="M39.6918134,50.8992095 C40.3583232,50.8992095 43.0559309,50.8992095 47.7846365,50.8992095 C47.1327593,53.078498 47.1327593,54.3631416 47.7846365,54.7531403 C48.9594494,55.4559961 50.2392407,57.7324479 51.6240103,61.5824959 C51.927011,69.8275236 51.927011,75.0831909 51.6240103,77.3494975 C51.2558978,80.102811 50.1003752,81.112936 50.2043902,82.2766856 C50.3113689,83.4735944 51.1833999,86.9881657 51.6240103,88.8641724 C52.6344513,93.1663725 52.1051962,98.3610888 51.6240103,99.0291248 C50.2043902,101 48.8375176,101 43.1062895,101 C36.0081888,101 36.0081888,101 34.5885687,99.0291248 C34.0040283,98.2176006 33.6260345,92.0838365 34.5885687,87.6667712 C34.8880455,86.2924734 36.0081888,83.1039229 36.0081888,82.2766856 C36.0081888,81.1368188 35.0025389,80.1781565 34.5885687,77.3494975 C33.7365058,71.5273503 34.5554455,61.7204519 34.5885687,61.5824959 C36.0201966,57.6629198 37.2607961,55.3864679 38.3103674,54.7531403 C40.1407634,53.6486509 37.5110953,50.8992095 39.6918134,50.8992095 Z" id="path-3"></path>
        <filter x="-8.2%" y="-3.0%" width="116.5%" height="106.0%" filterUnits="objectBoundingBox" id="filter-4">
            <feOffset dx="0" dy="0" in="SourceAlpha" result="shadowOffsetOuter1"></feOffset>
            <feGaussianBlur stdDeviation="0.5" in="shadowOffsetOuter1" result="shadowBlurOuter1"></feGaussianBlur>
            <feColorMatrix values="0 0 0 0 0   0 0 0 0 0   0 0 0 0 0  0 0 0 0.5 0" type="matrix" in="shadowBlurOuter1"></feColorMatrix>
        </filter>
    </defs>
    <g id="Welcome" stroke="none" stroke-width="1" fill="none" fill-rule="evenodd">
        <g id="Desktop-HD" transform="translate(-22.000000, -15.000000)">
            <g id="Raindrop-Logo" transform="translate(16.000000, 14.000000)">
                <g transform="translate(6.600000, 0.998024)" id="Path">
                    <g>
                        <use fill="#86EAFF" xlink:href="#path-2"></use>
                        <use fill="url(#linearGradient-1)" xlink:href="#path-2"></use>
                    </g>
                </g>
                <g id="Path">
                    <use fill="black" fill-opacity="1" filter="url(#filter-4)" xlink:href="#path-3"></use>
                    <use fill="#FFFFFF" fill-rule="evenodd" xlink:href="#path-3"></use>
                </g>
            </g>
        </g>
    </g>
</svg>
